<svg xmlns="http://www.w3.org/2000/svg" xmlns:xlink="http://www.w3.org/1999/xlink" width="500" zoomAndPan="magnify" viewBox="0 0 375 374.999991" height="500" preserveAspectRatio="xMidYMid meet" version="1.0"><defs><clipPath id="d0c7c2672c"><path d="M 21.90625 136 L 250 136 L 250 342.285156 L 21.90625 342.285156 Z M 21.90625 136 " clip-rule="nonzero"/></clipPath><clipPath id="10e28e0041"><path d="M 56 10.785156 L 148 10.785156 L 148 131 L 56 131 Z M 56 10.785156 " clip-rule="nonzero"/></clipPath><clipPath id="93f812566e"><path d="M 319 170 L 353.40625 170 L 353.40625 342.285156 L 319 342.285156 Z M 319 170 " clip-rule="nonzero"/></clipPath><clipPath id="eeb604d0f9"><path d="M 261 233 L 297 233 L 297 342.285156 L 261 342.285156 Z M 261 233 " clip-rule="nonzero"/></clipPath><clipPath id="0670e50bf0"><path d="M 204 285 L 240 285 L 240 342.285156 L 204 342.285156 Z M 204 285 " clip-rule="nonzero"/></clipPath><clipPath id="740c5d6e6c"><path d="M 296 49 L 353.40625 49 L 353.40625 134 L 296 134 Z M 296 49 " clip-rule="nonzero"/></clipPath></defs><path fill="#000000" d="M 288.636719 167.984375 L 265.617188 150.703125 L 245.414062 191.113281 L 255.636719 196.25 L 269.726562 168.074219 L 292.429688 185.085938 L 314.019531 144.945312 L 303.953125 139.542969 L 288.636719 167.984375 " fill-opacity="1" fill-rule="nonzero"/><g clip-path="url(#d0c7c2672c)"><path fill="#000000" d="M 164.792969 290.847656 L 153.363281 290.847656 L 153.363281 197.703125 C 153.363281 196.71875 153.273438 195.714844 153.09375 194.777344 L 164.300781 192.589844 C 164.613281 194.261719 164.792969 195.980469 164.792969 197.703125 Z M 148.472656 186.402344 C 145.613281 183.726562 141.863281 182.25 137.910156 182.25 L 137.910156 170.820312 C 144.789062 170.820312 151.308594 173.410156 156.308594 178.097656 Z M 136.214844 227.976562 L 124.785156 227.976562 L 124.785156 225.117188 C 124.785156 217.238281 118.375 210.828125 110.496094 210.828125 L 93.347656 210.828125 C 85.46875 210.828125 79.058594 217.238281 79.058594 225.117188 C 79.058594 233 85.46875 239.40625 93.347656 239.40625 L 110.496094 239.40625 C 124.671875 239.40625 136.214844 250.949219 136.214844 265.125 C 136.214844 279.304688 124.671875 290.847656 110.496094 290.847656 L 107.636719 290.847656 L 107.636719 302.277344 L 96.207031 302.277344 L 96.207031 290.847656 L 93.347656 290.847656 C 79.171875 290.847656 67.628906 279.304688 67.628906 265.125 L 67.628906 262.269531 L 79.058594 262.269531 L 79.058594 265.125 C 79.058594 273.007812 85.46875 279.414062 93.347656 279.414062 L 110.496094 279.414062 C 118.375 279.414062 124.785156 273.007812 124.785156 265.125 C 124.785156 257.246094 118.375 250.835938 110.496094 250.835938 L 93.347656 250.835938 C 79.171875 250.835938 67.628906 239.296875 67.628906 225.117188 C 67.628906 210.941406 79.171875 199.398438 93.347656 199.398438 L 96.207031 199.398438 L 96.207031 187.96875 L 107.636719 187.96875 L 107.636719 199.398438 L 110.496094 199.398438 C 124.671875 199.398438 136.214844 210.941406 136.214844 225.117188 Z M 220.386719 241.191406 L 207.167969 227.976562 L 176.222656 227.976562 L 176.222656 197.703125 C 176.222656 189.015625 173.230469 180.53125 167.828125 173.765625 C 160.527344 164.636719 149.609375 159.390625 137.910156 159.390625 L 176.222656 159.390625 C 179.394531 159.390625 181.960938 156.820312 181.9375 153.675781 L 181.9375 142.242188 C 181.9375 139.09375 179.371094 136.527344 176.222656 136.527344 L 27.621094 136.527344 C 24.472656 136.527344 21.90625 139.09375 21.90625 142.242188 L 21.90625 153.675781 C 21.90625 156.820312 24.472656 159.390625 27.621094 159.390625 L 65.910156 159.390625 C 54.234375 159.390625 43.316406 164.636719 36.015625 173.765625 C 30.589844 180.53125 27.621094 189.015625 27.621094 197.703125 L 27.621094 306.09375 C 33.78125 314.445312 43.492188 319.425781 53.941406 319.425781 L 67.628906 319.425781 L 67.628906 330.855469 L 53.941406 330.855469 C 44.296875 330.855469 35.121094 327.683594 27.621094 322.101562 L 27.621094 325.140625 C 27.621094 334.605469 35.300781 342.285156 44.765625 342.285156 L 159.078125 342.285156 C 168.542969 342.285156 176.222656 334.605469 176.222656 325.140625 L 176.222656 322.101562 C 168.699219 327.683594 159.546875 330.855469 149.902344 330.855469 L 79.058594 330.855469 L 79.058594 319.425781 L 149.902344 319.425781 C 160.347656 319.425781 170.0625 314.445312 176.222656 306.09375 L 176.222656 239.40625 L 202.433594 239.40625 L 223.511719 260.484375 L 249.921875 207.679688 L 239.695312 202.546875 L 220.386719 241.191406 " fill-opacity="1" fill-rule="nonzero"/></g><path fill="#000000" d="M 61.914062 62.226562 L 50.480469 62.226562 C 50.480469 81.160156 65.84375 96.519531 84.773438 96.519531 L 96.207031 96.519531 C 96.207031 77.585938 80.847656 62.226562 61.914062 62.226562 " fill-opacity="1" fill-rule="nonzero"/><g clip-path="url(#10e28e0041)"><path fill="#000000" d="M 96.207031 130.8125 L 107.636719 130.8125 L 107.636719 45.078125 L 113.351562 45.078125 C 132.285156 45.078125 147.644531 29.71875 147.644531 10.785156 L 136.214844 10.785156 C 117.28125 10.785156 101.921875 26.144531 101.921875 45.078125 C 101.921875 26.144531 86.5625 10.785156 67.628906 10.785156 L 56.199219 10.785156 C 56.199219 29.71875 71.558594 45.078125 90.492188 45.078125 L 96.207031 45.078125 L 96.207031 130.8125 " fill-opacity="1" fill-rule="nonzero"/></g><path fill="#000000" d="M 164.792969 62.226562 L 153.363281 62.226562 C 128.109375 62.226562 107.636719 82.699219 107.636719 107.949219 L 119.070312 107.949219 C 144.320312 107.949219 164.792969 87.476562 164.792969 62.226562 " fill-opacity="1" fill-rule="nonzero"/><g clip-path="url(#93f812566e)"><path fill="#000000" d="M 319.113281 342.285156 L 353.40625 342.285156 L 353.40625 170.820312 L 319.113281 170.820312 L 319.113281 342.285156 " fill-opacity="1" fill-rule="nonzero"/></g><g clip-path="url(#eeb604d0f9)"><path fill="#000000" d="M 261.957031 342.285156 L 296.25 342.285156 L 296.25 233.691406 L 261.957031 233.691406 L 261.957031 342.285156 " fill-opacity="1" fill-rule="nonzero"/></g><g clip-path="url(#0670e50bf0)"><path fill="#000000" d="M 204.800781 342.285156 L 239.09375 342.285156 L 239.09375 285.128906 L 204.800781 285.128906 L 204.800781 342.285156 " fill-opacity="1" fill-rule="nonzero"/></g><g clip-path="url(#740c5d6e6c)"><path fill="#000000" d="M 296.984375 98.148438 L 320.761719 108.351562 L 310.113281 128.109375 L 320.183594 133.511719 L 331.300781 112.863281 L 353.40625 122.328125 L 353.40625 49.8125 L 296.984375 98.148438 " fill-opacity="1" fill-rule="nonzero"/></g><path fill="#000000" d="M 267.671875 33.648438 L 176.222656 33.648438 L 176.222656 45.078125 L 267.671875 45.078125 L 267.671875 33.648438 " fill-opacity="1" fill-rule="nonzero"/><path fill="#000000" d="M 290.535156 33.648438 L 279.101562 33.648438 L 279.101562 45.078125 L 290.535156 45.078125 L 290.535156 33.648438 " fill-opacity="1" fill-rule="nonzero"/><path fill="#000000" d="M 267.671875 56.511719 L 176.222656 56.511719 L 176.222656 67.941406 L 267.671875 67.941406 L 267.671875 56.511719 " fill-opacity="1" fill-rule="nonzero"/><path fill="#000000" d="M 290.535156 56.511719 L 279.101562 56.511719 L 279.101562 67.941406 L 290.535156 67.941406 L 290.535156 56.511719 " fill-opacity="1" fill-rule="nonzero"/><path fill="#000000" d="M 267.671875 79.371094 L 176.222656 79.371094 L 176.222656 90.804688 L 267.671875 90.804688 L 267.671875 79.371094 " fill-opacity="1" fill-rule="nonzero"/><path fill="#000000" d="M 290.535156 79.371094 L 279.101562 79.371094 L 279.101562 90.804688 L 290.535156 90.804688 L 290.535156 79.371094 " fill-opacity="1" fill-rule="nonzero"/><path fill="#000000" d="M 267.671875 102.234375 L 176.222656 102.234375 L 176.222656 113.664062 L 267.671875 113.664062 L 267.671875 102.234375 " fill-opacity="1" fill-rule="nonzero"/><path fill="#000000" d="M 290.535156 102.234375 L 279.101562 102.234375 L 279.101562 113.664062 L 290.535156 113.664062 L 290.535156 102.234375 " fill-opacity="1" fill-rule="nonzero"/></svg>